<?xml version="1.0" standalone="no"?>
<!DOCTYPE svg PUBLIC "-//W3C//DTD SVG 20010904//EN"
 "http://www.w3.org/TR/2001/REC-SVG-20010904/DTD/svg10.dtd">
<svg version="1.0" xmlns="http://www.w3.org/2000/svg"
 width="512.000000pt" height="512.000000pt" viewBox="0 0 512.000000 512.000000"
 preserveAspectRatio="xMidYMid meet">

<g transform="translate(0.000000,512.000000) scale(0.100000,-0.100000)"
fill="#000000" stroke="none">
<path d="M1999 4787 c-24 -16 -38 -36 -49 -69 l-15 -47 -500 -3 c-458 -3 -503
-4 -528 -21 -56 -36 -58 -52 -55 -353 l3 -276 37 -34 38 -34 1630 0 1630 0 38
34 37 34 3 276 c3 301 1 317 -55 353 -25 17 -70 18 -528 21 l-500 3 -15 47
c-11 33 -25 53 -49 69 l-34 23 -527 0 -527 0 -34 -23z"/>
<path d="M1131 3700 c-18 -4 -48 -22 -65 -39 l-31 -31 0 -1624 c0 -1609 0
-1624 20 -1646 48 -53 -34 -50 1505 -50 1539 0 1457 -3 1505 50 20 22 20 37
20 1646 l0 1624 -31 30 c-17 17 -48 35 -70 40 -48 12 -2805 11 -2853 0z m797
-330 c66 -40 62 40 62 -1367 0 -1219 -1 -1280 -18 -1312 -28 -51 -73 -71 -162
-71 -89 0 -134 20 -162 71 -17 32 -18 93 -18 1312 0 1407 -4 1327 62 1367 26
16 50 20 118 20 68 0 92 -4 118 -20z m750 0 c66 -40 62 40 62 -1367 0 -1219
-1 -1280 -18 -1312 -28 -51 -73 -71 -162 -71 -89 0 -134 20 -162 71 -17 32
-18 93 -18 1312 0 1407 -4 1327 62 1367 26 16 50 20 118 20 68 0 92 -4 118
-20z m750 0 c66 -40 62 40 62 -1367 0 -1219 -1 -1280 -18 -1312 -28 -51 -73
-71 -162 -71 -89 0 -134 20 -162 71 -17 32 -18 93 -18 1312 0 1407 -4 1327 62
1367 26 16 50 20 118 20 68 0 92 -4 118 -20z"/>
</g>
</svg>
