<?xml version="1.0" standalone="no"?>
<!DOCTYPE svg PUBLIC "-//W3C//DTD SVG 20010904//EN"
 "http://www.w3.org/TR/2001/REC-SVG-20010904/DTD/svg10.dtd">
<svg version="1.0" xmlns="http://www.w3.org/2000/svg"
 width="512.000000pt" height="512.000000pt" viewBox="0 0 512.000000 512.000000"
 preserveAspectRatio="xMidYMid meet">

<g transform="translate(0.000000,512.000000) scale(0.100000,-0.100000)"
fill="#000000" stroke="none">
<path d="M2720 3383 c-144 -280 -281 -532 -304 -562 -50 -66 -133 -115 -221
-130 -35 -6 -198 -11 -378 -11 -294 0 -320 -1 -371 -20 -68 -26 -127 -72 -171
-134 -33 -47 -65 -132 -65 -175 l0 -21 903 1 c815 1 907 2 952 17 l50 17 3
721 2 722 -66 41 c-36 22 -67 41 -69 41 -1 0 -121 -228 -265 -507z"/>
<path d="M3790 3080 c-27 -27 -26 -81 1 -106 18 -17 37 -19 146 -19 119 0 126
1 144 24 25 30 24 76 -1 101 -18 18 -33 20 -145 20 -112 0 -127 -2 -145 -20z"/>
<path d="M1275 2141 c-88 -25 -142 -52 -212 -105 -160 -121 -254 -325 -240
-520 19 -263 183 -475 432 -558 98 -32 259 -33 360 -1 164 52 298 167 370 318
51 105 65 166 65 275 0 107 -14 170 -62 269 -75 157 -229 282 -403 326 -80 20
-233 18 -310 -4z m271 -336 c40 -16 107 -77 134 -119 86 -140 14 -341 -144
-401 -57 -22 -174 -17 -225 9 -52 28 -117 101 -135 153 -57 165 33 332 201
372 44 11 125 4 169 -14z"/>
<path d="M3697 2144 c-278 -67 -484 -346 -464 -628 19 -263 183 -475 432 -558
98 -32 259 -33 360 -1 164 52 298 167 370 318 24 49 48 114 54 143 16 75 14
208 -4 277 -54 214 -229 391 -440 445 -92 24 -221 25 -308 4z m259 -339 c40
-16 107 -77 134 -119 86 -140 14 -341 -144 -401 -57 -22 -174 -17 -225 9 -52
28 -117 101 -135 153 -57 165 33 332 201 372 44 11 125 4 169 -14z"/>
</g>
</svg>
